<?xml version="1.0" encoding="UTF-8"?><svg id="a" xmlns="http://www.w3.org/2000/svg" viewBox="0 0 110.46 110.46"><path d="m93.98,110.46H16.48c-9.1,0-16.48-7.38-16.48-16.48V16.48C0,7.38,7.38,0,16.48,0h77.49c9.1,0,16.48,7.38,16.48,16.48v77.49c0,9.1-7.38,16.48-16.48,16.48Z" style="fill:#00704d; stroke-width:0px;"/><path d="m83.22,66.16c-.21,4.2.35,8.33-.52,12.41-1.03,4.86-4.22,7.73-9.1,8.19-1.03.08-2.07.14-3.08.14-9.68,0-19.38.04-29.06-.02-4.03-.04-7.86-.97-11.04-3.62-1.51-1.28-2.77-2.79-3.72-4.57-1.61-3.04-2.15-6.27-2.13-9.64.02-9.76-.02-19.52.02-29.31.02-3.52.99-6.76,3.02-9.72.97-1.43,2.05-2.67,3.43-3.6,1.1-.72,2.27-1.36,3.5-1.82,1.08-.39,2.3-.43,3.43-.7,4.53-.5,11.73-.35,11.73-.35l18.28.06c3.35.08,6.49,1.1,9.08,3.39,2.46,2.19,3.76,4.98,4.41,8.17.64,3.16.91,6.35.74,9.58-.17,3.25-.1,6.51-1.34,9.62-1.84,4.59-5.25,7.36-10.11,8-3.14.41-6.33.39-9.51.48-1.88.06-3.74-.06-5.63-.04-.7,0-1.43.04-2.07.27-1.43.45-2.09,1.76-1.74,3.23.23.95.5,1.94,1.34,2.5.81.54,1.72,1.1,2.65,1.22,3.47.43,7.01.56,10.49.08,2.48-.35,5.48-.77,7.36-1.53,0,0,1.68-.89,2.44-1.41,1.59-.95,2.05-1.05,3.27-1.01,1.22.04,2.48,0,3.87,0Zm-28.27-21.01c-.08,2.42,1.88,4.14,3.97,4.2,2.42.08,4.18-2.05,4.14-4.2-.04-2.32-1.61-4.01-4.12-4.03-2.23-.02-3.99,1.8-3.99,4.03Z" style="fill:#fff; stroke-width:0px;"/></svg>