<?xml version="1.0" encoding="utf-8"?>
<!-- Generator: Adobe Illustrator 28.0.0, SVG Export Plug-In . SVG Version: 6.00 Build 0)  -->
<svg version="1.1" id="Layer_1" xmlns="http://www.w3.org/2000/svg" xmlns:xlink="http://www.w3.org/1999/xlink" x="0px" y="0px"
	 viewBox="0 0 1155 1000" style="enable-background:new 0 0 1155 1000;" xml:space="preserve">
<style type="text/css">
	.st0{fill:#00704D;}
	.st1{fill:#FFFFFF;}
</style>
<path class="st0" d="M1004.9,1000H169.5c-44,0-79.7-35.7-79.7-79.7V84.9c0-44,35.7-79.7,79.7-79.7h835.4c44,0,79.7,35.7,79.7,79.7
	v835.4C1084.6,964.3,1048.9,1000,1004.9,1000z"/>
<path class="st1" d="M839.3,601.1c-1.9,37.7,3.1,75-4.7,111.8c-9.2,43.7-38,69.7-82,73.7c-9.2,0.8-18.5,1.3-27.8,1.4
	c-87.2,0.1-174.4,0.4-261.7-0.3c-36.3-0.3-70.8-8.7-99.4-32.7c-13.7-11.5-25-25.1-33.5-41.2c-14.5-27.3-19.3-56.4-19.2-86.8
	c0.2-88-0.2-175.9,0.2-263.9c0.1-31.7,8.9-60.8,27.2-87.5c8.8-12.8,18.4-24.1,30.9-32.5c9.8-6.6,20.5-12.3,31.5-16.3
	c9.8-3.6,20.6-4,30.9-6.3c40.8-4.4,105.7-3.1,105.7-3.1l164.6,0.5c30.2,0.7,58.5,9.9,81.7,30.6c22.1,19.7,33.8,44.9,39.7,73.6
	c5.8,28.5,8.2,57.2,6.7,86.2c-1.5,29.2-1,58.7-12,86.6c-16.5,41.5-47.2,66.5-91,72.4c-28.2,3.8-57.1,3.5-85.7,4.3
	c-16.9,0.5-33.8-0.5-50.7-0.4c-6.3,0-12.8,0.5-18.7,2.3c-12.8,4.1-18.7,15.9-15.7,29c2,8.6,4.4,17.6,12,22.6
	c7.3,4.8,15.5,9.9,23.8,10.9c31.4,3.9,63.1,5,94.4,0.7c22.3-3.1,49.3-7,66.2-13.8c0,0,15-7.9,22-12.7c14.4-8.6,18.5-9.5,29.5-9.1
	C815.5,601.5,826.8,601.1,839.3,601.1z M584.6,411.9c-0.7,21.8,17,37.2,35.7,37.9c21.7,0.8,37.6-18.4,37.3-37.8
	c-0.3-20.9-14.4-36.2-36.9-36.5C600.5,375.3,584.7,391.7,584.6,411.9z"/>
</svg>
