<?xml version="1.0" encoding="utf-8"?>
<!-- Generator: Adobe Illustrator 28.0.0, SVG Export Plug-In . SVG Version: 6.00 Build 0)  -->
<svg version="1.1" id="Layer_1" xmlns="http://www.w3.org/2000/svg" xmlns:xlink="http://www.w3.org/1999/xlink" x="0px" y="0px"
	 viewBox="0 0 31.9 32" style="enable-background:new 0 0 31.9 32;" xml:space="preserve">
<style type="text/css">
	.st0{fill:#00704D;}
	.st1{fill:#FFFFFF;}
</style>
<path class="st0" d="M23.4,31.6h-15c-4.5,0-8.1-3.6-8.1-8.1v-15c0-4.5,3.6-8.1,8.1-8.1h15c4.5,0,8.1,3.6,8.1,8.1v15
	C31.5,28,27.9,31.6,23.4,31.6z"/>
<path class="st1" d="M23.8,19.1c-0.1,1.2,0.1,2.4-0.1,3.5c-0.3,1.4-1.2,2.2-2.6,2.3c-0.3,0-0.6,0-0.9,0c-2.7,0-5.5,0-8.2,0
	c-1.1,0-2.2-0.3-3.1-1c-0.4-0.4-0.8-0.8-1.1-1.3c-0.5-0.9-0.6-1.8-0.6-2.7c0-2.8,0-5.5,0-8.3c0-1,0.3-1.9,0.9-2.8
	c0.3-0.4,0.6-0.8,1-1c0.3-0.2,0.6-0.4,1-0.5c0.3-0.1,0.6-0.1,1-0.2C12.2,7,14.3,7,14.3,7l5.2,0c1,0,1.8,0.3,2.6,1
	c0.7,0.6,1.1,1.4,1.2,2.3c0.2,0.9,0.3,1.8,0.2,2.7c0,0.9,0,1.8-0.4,2.7c-0.5,1.3-1.5,2.1-2.9,2.3c-0.9,0.1-1.8,0.1-2.7,0.1
	c-0.5,0-1.1,0-1.6,0c-0.2,0-0.4,0-0.6,0.1c-0.4,0.1-0.6,0.5-0.5,0.9c0.1,0.3,0.1,0.6,0.4,0.7c0.2,0.2,0.5,0.3,0.7,0.3
	c1,0.1,2,0.2,3,0c0.7-0.1,1.5-0.2,2.1-0.4c0,0,0.5-0.2,0.7-0.4c0.5-0.3,0.6-0.3,0.9-0.3C23,19.1,23.4,19.1,23.8,19.1z M15.8,13.1
	c0,0.7,0.5,1.2,1.1,1.2c0.7,0,1.2-0.6,1.2-1.2c0-0.7-0.5-1.1-1.2-1.1C16.3,12,15.8,12.5,15.8,13.1z"/>
</svg>
