<?xml version="1.0" encoding="UTF-8"?><svg id="a" xmlns="http://www.w3.org/2000/svg" viewBox="0 0 792.58 538.14"><path d="m571.97,261.18c-1.27,25.66,2.12,51.01-3.17,76.06-6.29,29.75-25.85,47.4-55.79,50.11-6.29.57-12.62.92-18.93.92-59.32.04-118.65.29-177.97-.19-24.66-.2-48.15-5.9-67.62-22.23-9.3-7.8-17-17.08-22.82-28.05-9.85-18.59-13.14-38.34-13.09-59.06.14-59.82-.12-119.65.15-179.47.1-21.56,6.03-41.37,18.47-59.52,5.96-8.7,12.48-16.38,21.02-22.1,6.66-4.46,13.93-8.36,21.44-11.11,6.64-2.43,14.04-2.71,21.02-4.31C322.46-.77,366.55.13,366.55.13l111.97.34c20.55.48,39.79,6.72,55.59,20.79,15.01,13.37,23,30.54,26.98,50.04,3.96,19.38,5.56,38.93,4.55,58.6-1.02,19.83-.66,39.95-8.18,58.89-11.21,28.24-32.08,45.23-61.92,49.24-19.21,2.58-38.81,2.35-58.26,2.93-11.48.34-22.98-.35-34.47-.27-4.26.03-8.72.31-12.73,1.59-8.72,2.79-12.74,10.78-10.65,19.74,1.37,5.87,2.99,11.96,8.19,15.38,4.95,3.25,10.56,6.75,16.22,7.45,21.33,2.64,42.89,3.41,64.23.47,15.17-2.1,33.51-4.74,45.04-9.38,0,0,10.2-5.39,14.98-8.64,9.81-5.87,12.56-6.46,20.05-6.18,7.65.29,15.32.06,23.82.06Zm-173.21-128.71c-.45,14.82,11.53,25.31,24.27,25.77,14.78.52,25.57-12.51,25.37-25.7-.21-14.24-9.8-24.63-25.12-24.82-13.71-.17-24.49,11.01-24.53,24.75Z" style="fill:#00704d; stroke-width:0px;"/><path d="m164.59,449.52v88.22h-18.68v-60.82c-.32-.07-.63-.14-.95-.21-1.37,4.3-2.77,8.6-4.11,12.91-4.67,14.97-9.4,29.93-13.91,44.95-.82,2.74-2.03,3.96-4.85,3.45-.48-.09-1-.02-1.5-.02-12.09-.03-12.16,0-15.81-11.42-4.27-13.36-8.43-26.76-12.56-40.16-.89-2.88-1.42-5.88-3.16-8.69v60.02h-18.16v-88.21c7.93,0,16.02-.12,24.09.16.97.03,2.24,2.1,2.73,3.46,6.04,16.62,11.96,33.29,17.93,49.94.52,1.46,1.13,2.88,2,5.07,6.91-19.24,13.42-37.51,20.11-55.72.45-1.24,2.23-2.78,3.43-2.82,7.63-.26,15.27-.13,23.38-.13Z" style="fill:#00704d; stroke-width:0px;"/><path d="m665.35,482.97v54.75h-20.27v-88.17c6.46,0,13.07-.15,19.66.15,1.12.05,2.46,1.87,3.17,3.16,8.74,15.78,17.38,31.61,26.05,47.43.69,1.26,1.47,2.46,2.77,4.63v-55h20.71v88.1c-6.7,0-13.16.15-19.61-.13-1.18-.05-2.69-1.61-3.35-2.85-8.98-16.76-17.85-33.59-26.74-50.4-.34-.64-.71-1.25-1.06-1.88l-1.34.21Z" style="fill:#00704d; stroke-width:0px;"/><path d="m543.55,537.95h-21.39v-35.44h-29.25v35.35h-21.16v-88.01h21.05v34.34h29.01v-34.34h21.74v88.1Z" style="fill:#00704d; stroke-width:0px;"/><path d="m636.39,537.95h-22.39c-1.43-4.9-2.65-9.86-4.4-14.62-.5-1.36-2.54-3-3.94-3.05-7.48-.3-14.98-.25-22.46-.02-1.19.04-2.96,1.34-3.39,2.47-1.55,4.06-2.51,8.34-4.01,12.42-.43,1.17-1.92,2.71-2.98,2.75-6.26.26-12.53.13-19.25.13,6.31-20.34,12.46-40.16,18.6-59.98,2.54-8.19,5.16-16.35,7.52-24.59.87-3.03,2.3-4.13,5.54-4,6.81.28,13.65-.08,20.46.21,1.4.06,3.56,1.57,3.98,2.86,8.83,27.67,17.47,55.41,26.14,83.13.19.61.32,1.25.58,2.29Zm-40.89-64.63c-.4.07-.81.14-1.21.21-2.78,9.52-5.56,19.04-8.37,28.65h18.22c-2.95-9.86-5.8-19.36-8.64-28.86Z" style="fill:#00704d; stroke-width:0px;"/><path d="m320.52,537.75v-87.97h56.03v17.85h-34.57v16.61h30.57v17.98h-30.54v18.01h35.59v17.51h-57.08Z" style="fill:#00704d; stroke-width:0px;"/><path d="m412.67,509.15v28.62h-21.32v-88.24c9.19,0,18.31-.14,27.41.05,6.13.13,12.42-.05,18.33,1.26,14.78,3.27,22.53,13.26,22.68,27.93.15,14.32-7.71,25.09-22.23,28.33-7.83,1.75-16.12,1.4-24.88,2.04Zm0-41.77c0,7.36.08,14.17-.04,20.97-.05,2.71.88,4.26,3.7,3.9,4.77-.61,9.67-.9,14.24-2.24,5.54-1.62,7.36-6.41,6.3-13.98-.72-5.17-3.78-8.25-9.27-8.6-4.77-.3-9.58-.06-14.93-.06Z" style="fill:#00704d; stroke-width:0px;"/><path d="m202.35,467.54v16.65h30.84v18h-30.76v17.89h35.62v17.73h-57.05v-88.05h55.57v17.79h-34.22Z" style="fill:#00704d; stroke-width:0px;"/><path d="m0,449.76h55.47v17.87H20.96v16.71h30.93v17.87h-30.91v17.77h35.5v17.82H0v-88.04Z" style="fill:#00704d; stroke-width:0px;"/><path d="m770.78,537.82h-21.1v-70.16h-21.99v-17.85h64.89v17.76h-21.8v70.25Z" style="fill:#00704d; stroke-width:0px;"/><path d="m308.51,537.89h-55.49v-88.07h20.85v70.33h34.64v17.74Z" style="fill:#00704d; stroke-width:0px;"/></svg>